<?xml version="1.0" encoding="utf-8"?>
<!-- Generator: Adobe Illustrator 24.2.3, SVG Export Plug-In . SVG Version: 6.00 Build 0)  -->
<svg version="1.1" id="Layer_1" xmlns="http://www.w3.org/2000/svg" xmlns:xlink="http://www.w3.org/1999/xlink" x="0px" y="0px"
	 viewBox="0 0 169 182.4" style="enable-background:new 0 0 169 182.4;" xml:space="preserve">
<style type="text/css">
	.st0{fill:#FD9F4C;}
</style>
<g>
	<path class="st0" d="M102.8,37H53.9c-2.7,0-4.9,2.2-4.9,4.9c0,2.7,2.2,4.9,4.9,4.9h48.9c2.7,0,4.9-2.2,4.9-4.9
		C107.7,39.2,105.5,37,102.8,37z"/>
	<path class="st0" d="M0.2,171.3c0,6.1,4.9,11.1,11,11.1h134.4c5.6,0,10.3-4.3,10.9-9.9H9.9V24.7c-5.5,0.6-9.8,5.3-9.8,11V171.3z"/>
	<path class="st0" d="M53.9,120.8h85.5c2.7,0,4.9-2.2,4.9-4.9c0-2.7-2.2-4.9-4.9-4.9H53.9c-2.7,0-4.9,2.2-4.9,4.9
		C49.1,118.6,51.3,120.8,53.9,120.8z"/>
	<path class="st0" d="M168.8,11.1c0-6.1-4.9-11.1-11-11.1H35.6c-6.1,0-11,5-11,11.1v135.6c0,6.1,4.9,11.1,11,11.1h122.2
		c6.1,0,11-5,11-11.1V11.1z M159.1,140.5c0,4.1-3.3,7.4-7.3,7.4h-110c-4,0-7.3-3.3-7.3-7.4V17.3c0-4.1,3.3-7.4,7.3-7.4h110
		c4,0,7.3,3.3,7.3,7.4V140.5z"/>
	<path class="st0" d="M139.5,73.9H53.9c-2.7,0-4.9,2.2-4.9,4.9c0,2.7,2.2,4.9,4.9,4.9h85.5c2.7,0,4.9-2.2,4.9-4.9
		C144.4,76.2,142.2,73.9,139.5,73.9z"/>
</g>
</svg>
