<?xml version="1.0" encoding="utf-8"?>
<!-- Generator: Adobe Illustrator 24.2.3, SVG Export Plug-In . SVG Version: 6.00 Build 0)  -->
<svg version="1.1" id="Layer_1" xmlns="http://www.w3.org/2000/svg" xmlns:xlink="http://www.w3.org/1999/xlink" x="0px" y="0px"
	 viewBox="0 0 166.5 166.5" style="enable-background:new 0 0 166.5 166.5;" xml:space="preserve">
<style type="text/css">
	.st0{fill-rule:evenodd;clip-rule:evenodd;fill:#66D7C4;}
</style>
<g>
	<path class="st0" d="M130.7,84H93.2V36c0-2.5-2-4.5-4.5-4.5c-2.5,0-4.5,2-4.5,4.5v52.5c0,2.5,2,4.5,4.5,4.5h42c2.5,0,4.5-2,4.5-4.5
		C135.2,86,133.1,84,130.7,84z"/>
	<g>
		<rect x="-0.1" y="59" class="st0" width="0" height="0"/>
		<path class="st0" d="M83.4,166.5c45.9,0,83.2-37.3,83.2-83.3S129.3,0,83.4,0C53.2,0,25.3,16.5,10.6,43.1l-1.4-0.4V4.5
			C9.2,2,7.2,0,4.7,0C2.2,0,0.2,2,0.2,4.5v52c0,0.2,0,0.3-0.1,0.4c0,0.6,0.1,1.1,0.4,1.8c0.2,0.5,0.5,0.9,0.7,1.2
			c0.4,0.5,0.9,0.9,1.4,1.1l0.6,0.3l0,0.2h54c2.5,0,4.5-2,4.5-4.5c0-2.5-2-4.5-4.5-4.5H15.9l0.5-1.1C28.7,25.6,55,9,83.4,9
			c40.9,0,74.2,33.3,74.2,74.3s-33.3,74.3-74.2,74.3c-24.1,0-46.7-11.8-60.7-31.5H12.1C27.1,151,54.3,166.5,83.4,166.5z"/>
	</g>
</g>
</svg>
