<?xml version="1.0" encoding="utf-8"?>
<!-- Generator: Adobe Illustrator 24.2.3, SVG Export Plug-In . SVG Version: 6.00 Build 0)  -->
<svg version="1.1" id="Layer_1" xmlns="http://www.w3.org/2000/svg" xmlns:xlink="http://www.w3.org/1999/xlink" x="0px" y="0px"
	 viewBox="0 0 182.9 182.8" style="enable-background:new 0 0 182.9 182.8;" xml:space="preserve">
<style type="text/css">
	.st0{fill:#FFC536;}
</style>
<g>
	<path class="st0" d="M121.8,117.9l53-53c10.9-10.9,10.6-29.6-0.6-40.8L158.8,8.6C147.5-2.6,128.9-2.9,117.9,8l-16.8,16.8
		c-1.7,1.7-1.7,4.5,0,6.3c1.7,1.7,4.6,1.7,6.3,0l16.8-16.8c7.4-7.4,20.6-7.1,28.3,0.6L168,30.4c7.7,7.7,7.9,20.9,0.5,28.3
		l-52.8,52.8c-3.7,3.7-9.3,6-15.2,6.3c-6,0.3-11.4-1.5-14.9-5l-7.1-7.1c-0.1-0.1-0.2-0.2-0.3-0.4l-0.4-0.3l-4.2-4.2
		c-0.8-0.8-1.9-1.3-3.1-1.3c0,0,0,0,0,0c-1.2,0-2.3,0.5-3.1,1.3c-0.8,0.8-1.3,1.9-1.3,3.1c0,1.2,0.5,2.3,1.3,3.1l12.7,12.7
		c0.1,0.1,0.2,0.2,0.4,0.3l0.4,0.3c10.5,8.7,28,8.3,39-0.8l1.1-0.9l0,0l0.1-0.1C121.4,118.2,121.6,118,121.8,117.9z"/>
	<path class="st0" d="M83.2,54.5c-7.6,0-14.7,2.9-20,8.3L8.3,117.6c-11,11-11,29,0,40l16.9,16.9c11,11,29,11,40,0l16.9-16.9
		c0.8-0.8,1.3-1.9,1.3-3.1c0-1.2-0.5-2.3-1.3-3.1c-1.7-1.7-4.6-1.7-6.2,0L59,168.3c-7.6,7.6-19.9,7.6-27.5,0l-16.9-16.9
		c-7.6-7.6-7.6-19.9,0-27.5L69.4,69c7.6-7.6,19.9-7.6,27.5,0l12.7,12.7c1.7,1.7,4.6,1.7,6.2,0c1.7-1.7,1.7-4.5,0-6.2l-12.7-12.7
		C97.9,57.4,90.8,54.5,83.2,54.5z"/>
</g>
</svg>
