<?xml version="1.0" encoding="utf-8"?>
<!-- Generator: Adobe Illustrator 24.2.3, SVG Export Plug-In . SVG Version: 6.00 Build 0)  -->
<svg version="1.1" id="Layer_1" xmlns="http://www.w3.org/2000/svg" xmlns:xlink="http://www.w3.org/1999/xlink" x="0px" y="0px"
	 viewBox="0 0 192.3 180.9" style="enable-background:new 0 0 192.3 180.9;" xml:space="preserve">
<style type="text/css">
	.st0{fill:#FF9797;}
</style>
<g>
	<path class="st0" d="M60.3,86.9l-0.2,0.3l-8.3,24.4c-0.4,1.2-0.1,2.6,0.8,3.5c0.9,0.9,2.3,1.2,3.5,0.8l24.4-8.4
		c0.5-0.2,0.9-0.4,1.3-0.8l57.3-57.4c1.4-1.4,2.2-3.4,2.2-5.4c0-2-0.8-4-2.2-5.4l-10.1-10.1c-1.4-1.4-3.3-2.2-5.4-2.2c0,0,0,0,0,0
		c-2,0-4,0.8-5.4,2.2L61,85.9c0,0,0,0,0,0c0,0,0,0.1-0.1,0.1C60.7,86.3,60.5,86.6,60.3,86.9z M123.1,33.4c0.2-0.1,0.4-0.2,0.6-0.2
		c0,0,0,0,0,0c0.2,0,0.4,0.1,0.6,0.2l10.2,10.3c0.1,0.1,0.1,0.2,0.1,0.4c0,0.2-0.1,0.4-0.2,0.6l-8.6,8.6L114.5,42L123.1,33.4z
		 M109.7,46.8L120.9,58l-0.3,0.3L79.4,99.6L68.2,88.3L109.7,46.8z M64.8,94.6l8.3,8.3l-12.6,4.3L64.8,94.6z"/>
	<path class="st0" d="M26.8,180.6c1.2,0.5,2.8,0.2,3.7-0.7l37.3-37.4h114c6,0,11-4.9,11-11V11c0-6.1-4.9-11-11-11H11.2
		c-6,0-11,4.9-11,11v120.5c0,6,4.9,11,11,11h13.4v35C24.6,178.9,25.5,180.1,26.8,180.6z M11.2,135.7c-2.3,0-4.1-1.9-4.1-4.1V11
		c0-2.3,1.9-4.1,4.1-4.1h170.6c2.3,0,4.1,1.9,4.1,4.1v120.5c0,2.3-1.9,4.1-4.1,4.1H66.4c-0.9,0-1.8,0.4-2.4,1l-32.5,32.6v-30.2
		c0-1.9-1.5-3.4-3.4-3.4H11.2z"/>
</g>
</svg>
