<?xml version="1.0" encoding="utf-8"?>
<!-- Generator: Adobe Illustrator 24.2.3, SVG Export Plug-In . SVG Version: 6.00 Build 0)  -->
<svg version="1.1" id="Layer_1" xmlns="http://www.w3.org/2000/svg" xmlns:xlink="http://www.w3.org/1999/xlink" x="0px" y="0px"
	 viewBox="0 0 168 168" style="enable-background:new 0 0 168 168;" xml:space="preserve">
<style type="text/css">
	.st0{fill:#9E557D;}
</style>
<g>
	<path class="st0" d="M38.7,105.2l31.6-31.6l20.5,20.5c0.3,0.4,0.4,0.5,0.5,0.7c0.1,0.1,0.1,0.2,0.2,0.3c0.9,0.9,2.2,1.4,3.6,1.4
		c1.4,0,2.7-0.5,3.6-1.4c0,0,0.1-0.2,0.2-0.3c0.1-0.2,0.2-0.3,0.3-0.5l0.2-0.2l39.1-39.1c0.9-0.9,1.4-2.1,1.4-3.4
		c0-1.3-0.5-2.5-1.4-3.4c-1.9-1.9-5-1.9-6.9,0L95,84.6L74.1,63.7c-0.3-0.4-0.4-0.5-0.5-0.7c-0.7-0.8-1.3-1.2-2.1-1.5
		c-2-0.9-4.1-0.5-5.5,0.9c-0.1,0.1-0.2,0.2-0.3,0.3L31,97.5c-1,1-1.6,2.4-1.6,3.9s0.6,2.8,1.6,3.9C33,107.3,36.6,107.3,38.7,105.2z"
		/>
	<path class="st0" d="M0,156.4c0,6.4,5.2,11.6,11.6,11.6h144.8c6.4,0,11.6-5.2,11.6-11.6V11.6C168,5.2,162.8,0,156.4,0H11.6
		C5.2,0,0,5.2,0,11.6V156.4z M10.1,18.2c0-4.5,3.6-8.1,8.1-8.1h131.6c4.5,0,8.1,3.7,8.1,8.1v131.6c0,4.5-3.7,8.1-8.1,8.1H18.2
		c-4.5,0-8.1-3.7-8.1-8.1V18.2z"/>
</g>
</svg>
