<?xml version="1.0" encoding="utf-8"?>
<!-- Generator: Adobe Illustrator 24.2.3, SVG Export Plug-In . SVG Version: 6.00 Build 0)  -->
<svg version="1.1" id="Layer_1" xmlns="http://www.w3.org/2000/svg" xmlns:xlink="http://www.w3.org/1999/xlink" x="0px" y="0px"
	 viewBox="0 0 180.9 180.9" style="enable-background:new 0 0 180.9 180.9;" xml:space="preserve">
<style type="text/css">
	.st0{fill:#76D5E5;}
</style>
<g>
	<path class="st0" d="M118.6,134.3C118.6,134.3,118.6,134.3,118.6,134.3c-5.5,0-10,4.5-10,10c0,4.3,2.7,8.1,6.7,9.5v8.1
		c0,1.8,1.5,3.3,3.3,3.3s3.3-1.5,3.3-3.3v-8.1c2.4-0.8,4.4-2.5,5.6-4.8c1.2-2.4,1.5-5.1,0.7-7.6C126.8,137.1,123,134.3,118.6,134.3z
		 M122,144.3c0,1.9-1.6,3.5-3.5,3.5c-1.9,0-3.5-1.6-3.5-3.5c0-1.9,1.6-3.5,3.5-3.5C120.5,140.8,122,142.4,122,144.3z"/>
	<path class="st0" d="M147.1,121.5v-11.3c0-15.8-12.8-28.6-28.6-28.6S90,94.4,90,110.1v11.3c-6.3,0.6-11.2,5.9-11.2,12.3v23.9
		c0,12.8,10.4,23.3,23.2,23.3h33.2c12.8,0,23.2-10.4,23.2-23.2v-23.9C158.4,127.4,153.5,122.1,147.1,121.5z M96.5,121.3v-11.2
		c0-12.2,9.9-22.1,22-22.1s22,9.9,22,22.1v11.2H96.5z M151.9,133.7v23.9c0,9.2-7.5,16.8-16.7,16.8H102c-9.2,0-16.7-7.5-16.7-16.7
		v-23.9c0-3.2,2.6-5.8,5.8-5.8h55C149.3,127.9,151.9,130.6,151.9,133.7z"/>
	<path class="st0" d="M170.8,39.4c-0.1,0-0.1,0-0.2,0h-1v-7.3c0-5.5-4.4-9.6-10.3-9.6H72.2c-2.1,0-3.8-1.7-3.8-3.8v-8.4
		C68.3,4.6,63.8,0.1,58.1,0H10.3c0,0-0.1,0-0.1,0C4.6,0,0.1,4.5,0,10v136.7c-0.1,6.4,5.1,11.6,11.4,11.7h59.3c1.8,0,3.3-1.5,3.3-3.3
		c0-1.8-1.5-3.3-3.3-3.3H22.3c0.8-1.6,1.1-3.4,1.1-5.2V49.3c0.1-2,1.8-3.5,3.8-3.4h143.4c0.1,0,0.1,0,0.2,0c1.9,0,3.5,1.5,3.6,3.4
		l0,99.2c-0.1,2-1.8,3.5-3.8,3.4h-4.2c-1.8,0-3.3,1.5-3.3,3.3c0,1.8,1.5,3.3,3.3,3.3h4.2c0.1,0,0.1,0,0.2,0c5.5,0,10-4.4,10.1-9.9
		V49.3C180.8,43.8,176.3,39.4,170.8,39.4z M72.2,29h87.2c1.9,0,3.8,1,3.8,3v7.3H27.2c-0.1,0-0.1,0-0.2,0c-5.5,0-10,4.4-10.1,9.9
		v97.5c0.2,2.7-1.9,5-4.6,5.2c-0.2,0-0.4,0-0.6,0c-2.9,0-5.2-2.3-5.2-5.2V10c0.1-2,1.7-3.5,3.7-3.5c0,0,0.1,0,0.1,0h47.8
		c2.1,0.1,3.7,1.7,3.8,3.8v8.4C61.9,24.4,66.5,29,72.2,29z"/>
</g>
</svg>
