<?xml version="1.0" encoding="utf-8"?>
<!-- Generator: Adobe Illustrator 24.2.3, SVG Export Plug-In . SVG Version: 6.00 Build 0)  -->
<svg version="1.1" id="Layer_1" xmlns="http://www.w3.org/2000/svg" xmlns:xlink="http://www.w3.org/1999/xlink" x="0px" y="0px"
	 viewBox="0 0 231.8 166.5" style="enable-background:new 0 0 231.8 166.5;" xml:space="preserve">
<style type="text/css">
	.st0{fill:#4C7BA0;}
</style>
<g>
	<path class="st0" d="M229.4,116.9c-2.8-4.8-7.5-8-13.8-9.6c-15.3-3.8-24.5-6.1-28.9-7.2c-0.3-0.1-0.5-0.3-0.6-0.6
		c-0.1-0.3,0.1-0.6,0.3-0.8c7.2-4.8,19.4-17.8,19.4-51.4c0-15-3.8-26.8-11.3-35c-5.1-5.6-12.1-9.6-20.1-11.4
		c-11.7-2.7-24.5,0.4-33.6,7.9c3,1.3,5.8,2.9,8.5,4.7c7-4.6,14.4-4.9,16.5-4.9c5.2,0,31.1,1.9,31.1,38.8c0,37.6-16.5,44.8-17.2,45.1
		l-3.8,1.2l2.7,13.4l2.7,0.7c0.1,0,9.6,2.5,32.2,8c4,1,6.7,2.8,8.3,5.5c3.1,5.2,1.6,13.1,0.4,17.3c-0.4,1.6-2,2.7-3.7,2.7h-20
		c0.3,2.9,0.3,5.8,0.1,8.7h20c5.7,0,10.7-3.8,12.2-9.2C232.6,134.2,233.9,124.5,229.4,116.9z"/>
	<path class="st0" d="M67.5,166.5h105.4c5.7,0,10.7-3.8,12.2-9.2c1.9-6.7,3.2-16.4-1.3-24c-2.8-4.8-7.5-8-13.8-9.6
		c-15.3-3.8-24.5-6.1-28.9-7.2c-0.3-0.1-0.5-0.3-0.6-0.6s0.1-0.6,0.3-0.8c7.2-4.8,19.4-17.8,19.4-51.4c0-3.2-0.2-6.3-0.5-9.1
		c-0.3-2.8-0.8-5.4-1.4-7.9c-0.6-2.3-1.3-4.6-2.2-6.7c-0.8-2-1.8-3.9-2.9-5.6c-1-1.7-2.1-3.2-3.3-4.7c-1.1-1.4-2.4-2.6-3.7-3.8
		c-1.2-1.1-2.5-2.1-3.9-3c-1.3-0.8-2.6-1.6-4-2.3c-1.3-0.6-2.6-1.2-3.9-1.7c-1.2-0.5-2.5-0.9-3.7-1.2c-1.1-0.3-2.2-0.6-3.4-0.8
		c-1-0.2-1.9-0.3-2.9-0.5c-0.8-0.1-1.6-0.2-2.4-0.2c-0.5,0-1.1,0-1.6,0c-0.7,0-1.5,0-2.2,0.1c-0.8,0.1-1.6,0.1-2.4,0.2
		c-1,0.1-2,0.3-3,0.5c-1.1,0.2-2.3,0.5-3.4,0.8c-1.3,0.4-2.5,0.8-3.7,1.3c-1.4,0.5-2.7,1.1-3.9,1.8c-1.4,0.7-2.7,1.5-3.9,2.4
		c-1.3,0.9-2.6,2-3.8,3.1c-1.3,1.2-2.5,2.5-3.6,3.8c-1.2,1.5-2.3,3-3.2,4.7c-1,1.8-2,3.7-2.8,5.6c-0.8,2.1-1.6,4.3-2.1,6.7
		c-0.6,2.4-1.1,5.1-1.4,7.8c-0.3,2.8-0.5,5.7-0.5,8.7c0,33.5,12.1,46.6,19.4,51.4c0.3,0.2,0.4,0.5,0.3,0.8c-0.1,0.3-0.3,0.5-0.6,0.6
		c-4.4,1.1-13.6,3.4-28.9,7.2c-6.3,1.6-11,4.8-13.8,9.6c-4.5,7.6-3.2,17.2-1.3,24C56.8,162.7,61.8,166.5,67.5,166.5z M64.3,137.8
		c1.6-2.7,4.3-4.5,8.3-5.5c22.6-5.5,32.1-8,32.2-8l2.7-0.7l2.7-13.4l-3.7-1.2c-0.2-0.1-17.3-6.3-17.3-45.2
		c0-36.7,25.6-38.7,31.1-38.8c0.1,0,0.1,0,0.2,0c5.4,0,31.1,2.1,31.1,38.8c0,37.5-16.5,44.8-17.2,45.1l-3.8,1.2l2.7,13.4l2.7,0.7
		c0.1,0,9.6,2.5,32.2,8c4,1,6.7,2.8,8.3,5.5c3.1,5.2,1.6,13.1,0.4,17.3c-0.4,1.6-2,2.7-3.7,2.7H67.5c-1.7,0-3.3-1.1-3.7-2.7
		C62.7,150.8,61.2,143,64.3,137.8z"/>
	<path class="st0" d="M34.1,111V86.1c0-0.4,0.3-0.8,0.8-0.8H60v-8.7H34.9c-0.4,0-0.8-0.3-0.8-0.8V50.9h-8.8v24.9
		c0,0.4-0.3,0.8-0.8,0.8H-0.6v8.7h25.1c0.4,0,0.8,0.3,0.8,0.8V111H34.1z"/>
</g>
</svg>
