<svg xmlns="http://www.w3.org/2000/svg" width="180" height="180" viewBox="0 0 60 60">
  <defs>
    <style>
      .cls-1 {
        fill: #7e8589;
        fill-rule: evenodd;
      }
    </style>
  </defs>
  <path id="Icon_Brand" class="cls-1" d="M760,683a30,30,0,0,1-30-30v-3.637a3.407,3.407,0,0,1,.91-2.2l23.258-23.259a3.43,3.43,0,0,1,2.2-.91H760A30,30,0,0,1,760,683Zm-27.6-34.752a26.379,26.379,0,0,0,22.85-22.85Zm-0.582,1.893V653A28.183,28.183,0,1,0,760,624.817h-2.858A28.191,28.191,0,0,1,731.817,650.142Zm46.366,14.677H742.726a0.909,0.909,0,0,1-.771-1.391l9.092-14.546a0.909,0.909,0,0,1,1.542,0l3.443,5.508,7.752-11.887a0.909,0.909,0,0,1,1.523,0l13.637,20.91A0.909,0.909,0,0,1,778.183,664.819Zm-26.365-13.74L744.367,663h14.9Zm9.6,11.922H776.5l-11.958-18.337-7.452,11.426Z" transform="translate(-730 -623)"/>
</svg>
